<svg width="100" height="100" viewBox="0 0 64 64" fill="none" xmlns="http://www.w3.org/2000/svg">
  <!-- Map Pin -->
  <path d="M32 2C22.6 2 15 9.6 15 19c0 10.2 12.2 22.6 16 26.4 0.6 0.6 1.6 0.6 2.2 0 3.8-3.8 16-16.2 16-26.4C49 9.6 41.4 2 32 2zm0 26a7 7 0 110-14 7 7 0 010 14z" fill="#4F46E5"></path>
  
  <!-- Dice -->
  <rect x="5" y="42" width="16" height="16" rx="2" fill="#10B981" stroke="#065F46" stroke-width="1.5"></rect>
  <circle cx="9" cy="46" r="1.5" fill="white"></circle>
  <circle cx="17" cy="46" r="1.5" fill="white"></circle>
  <circle cx="13" cy="50" r="1.5" fill="white"></circle>
  <circle cx="9" cy="54" r="1.5" fill="white"></circle>
  <circle cx="17" cy="54" r="1.5" fill="white"></circle>
  
  <!-- Globe -->
  <circle cx="52" cy="52" r="8" fill="#3B82F6" stroke="#1E3A8A" stroke-width="1.5"></circle>
  <path d="M52 44c-1.5 1.5-2.5 5.5-2 8s2 5.5 2 5.5" stroke="white" stroke-width="1"></path>
  <path d="M48 52h8" stroke="white" stroke-width="1"></path>
</svg>
